<svg xml:space="preserve"
     xmlns="http://www.w3.org/2000/svg"
     xmlns:xlink="http://www.w3.org/1999/xlink"
     xmlns:html="http://www.w3.org/1999/xhtml"
id="rings-of-power-201-downloads-by-day-day" x="0px" y="0px"
width="1920.000000px" height="1080.000000px"
viewBox="0 0 1920.000000 1080.000000" enable-background="new 0 0 1920.000000 1080.000000" role="img">
<title>
rings-of-power-201-downloads-by-day-day
</title>
<desc>
Daily series for rings-of-power-201: upeers_total solid, useeds_total dashed.
</desc>
<title>
rings-of-power-201-downloads-by-day-day
</title>
 <g id="polyline-rings-of-power-201 downloads by day">
<polyline points="200,731.959 208.444,477.621 216.889,203.043 225.333,200 233.778,267.395 242.222,272.383 250.667,281.326 259.111,284.868 267.556,323.682 276,331.203 284.444,335.354 292.889,373.591 301.333,413.466 309.778,433.517 318.222,424.56 326.667,430.404 335.111,431.229 343.556,429.348 352,463.537 360.444,495.058 368.889,490.703 377.333,473.252 385.778,477.79 394.222,473.724 402.667,465.832 411.111,502.778 419.556,531.306 428,518.215 436.444,521.48 444.889,509.201 453.333,508.26 461.778,486.641 470.222,498.215 478.667,522.05 487.111,506.617 495.556,511.495 504,510.613 512.444,515.866 520.889,525.762 529.333,542.87 537.778,555.731 546.222,556.001 554.667,554.305 563.111,575.786 571.556,574.147 580,577.963 588.444,582.305 596.889,597.764 605.333,598.877 613.778,600.277 622.222,593.434 630.667,596.666 639.111,600.16 647.556,616.443 656,603.855 664.444,603.964 672.889,613.287 681.333,598.803 689.778,592.336 698.222,606.051 706.667,627.874 715.111,622.276 723.556,605.684 732,603.808 740.444,615.241 748.889,626.08 757.333,615.608 765.778,620.668 774.222,643.029 782.667,649.677 791.111,657.348 799.556,650.17 808,628.663 816.444,618.118 824.889,637.305 833.333,641.79 841.778,646.757 850.222,669.203 858.667,655.371 867.111,630.176 875.556,639.947 884,641.396 892.444,630.581 900.889,623.42 909.333,624.96 917.778,626.329 926.222,611.623 934.667,623.534 943.111,624.199 951.556,622.944 960,631.197 968.444,613.137 976.889,591.307 985.333,596.743 993.778,606.024 1002.22,608.981 1010.67,629.312 1019.11,657.936 1027.56,678.332 1036,663.421 1044.44,668.928 1052.89,669.659 1061.33,674.588 1069.78,682.493 1078.22,660.117 1086.67,660.644 1095.11,658.67 1103.56,650.084 1112,648.955 1120.44,661.239 1128.89,667.508 1137.33,646.406 1145.78,659.92 1154.22,754.453 1162.67,767.138 1171.11,621.105 1179.56,575.589 1188,506.02 1196.44,480.44 1204.89,492.944 1213.33,497.647 1221.78,517.872 1230.22,880 1238.67,497.235 1247.11,496.255 1255.56,474.113 1264,512.028 1272.44,496.793 1280.89,493.141 1289.33,487.826 1297.78,497.056 1306.22,492.262 1314.67,500.486 1323.11,487.401 1331.56,491.421 1340,495.958 1348.44,486.784 1356.89,500.112 1365.33,502.977 1373.78,488.861 1382.22,475.563 1390.67,474.122 1399.11,488.931 1407.56,509.267 1416,488.736 1424.44,487.61 1432.89,469.595 1441.33,487.665 1449.78,509.007 1458.22,478.616 1466.67,502.331 1475.11,508.918 1483.56,491.811 1492,495.902 1500.44,512.732 1508.89,498.405 1517.33,511.673 1525.78,517.915 1534.22,511.564 1542.67,529.488 1551.11,513.66 1559.56,522.478 1568,507.102 1576.44,540.569 1584.89,517.358 1593.33,537.741 1601.78,516.626 1610.22,515.025 1618.67,503.741 1627.11,491.864 1635.56,503.079 1644,486.7 1652.44,500.497 1660.89,520.946 1669.33,498.412 1677.78,502.379 1686.22,519.891 1694.67,505.405 1703.11,504.086 1711.56,512.54 1720,500.403 "  style="fill:rgb(0,0,255); fill-opacity:0; stroke:rgb(0,0,255); stroke-opacity:1; stroke-width:4" />
 </g>
</svg>

